<svg width="32" height="32" viewBox="0 0 32 32" fill="none" xmlns="http://www.w3.org/2000/svg">
  <!-- Medical Cross Background -->
  <rect width="32" height="32" rx="6" fill="#2563eb"/>
  
  <!-- Stethoscope Icon -->
  <path d="M8 12C8 9.79086 9.79086 8 12 8C14.2091 8 16 9.79086 16 12V16C16 17.1046 16.8954 18 18 18C19.1046 18 20 17.1046 20 16V15.5C19.1716 15.5 18.5 14.8284 18.5 14C18.5 13.1716 19.1716 12.5 20 12.5C20.8284 12.5 21.5 13.1716 21.5 14C21.5 14.8284 20.8284 15.5 20 15.5V16C20 17.6569 18.6569 19 17 19H16.5C15.6716 19 15 19.6716 15 20.5C15 21.3284 15.6716 22 16.5 22H17C19.2091 22 21 20.2091 21 18V16C21 15.4477 21.4477 15 22 15C22.5523 15 23 15.4477 23 16C23 17.6569 21.6569 19 20 19C18.3431 19 17 17.6569 17 16V12C17 9.23858 14.7614 7 12 7C9.23858 7 7 9.23858 7 12V16C7 18.7614 9.23858 21 12 21C13.1046 21 14 21.8954 14 23C14 24.1046 13.1046 25 12 25C7.58172 25 4 21.4183 4 17V12C4 7.58172 7.58172 4 12 4C16.4183 4 20 7.58172 20 12V16" stroke="white" stroke-width="1.5" stroke-linecap="round" stroke-linejoin="round"/>
  
  <!-- Heart Beat Line -->
  <path d="M6 24L8 20L10 26L12 18L14 28L16 22L18 24" stroke="#10b981" stroke-width="2" stroke-linecap="round" stroke-linejoin="round"/>
</svg>
